<svg width="17" height="20" viewBox="0 0 17 20" fill="none" xmlns="http://www.w3.org/2000/svg">
<path d="M10.918 0.686787C11.0744 3.89954 12.4744 5.27879 13.8252 6.60938C15.2408 8.00441 16.6079 9.34998 16.6924 12.4228C16.7346 13.9537 16.4069 15.4753 15.6991 16.8042C15.0358 18.0485 14.0434 19.1214 12.7098 19.8732C12.4884 19.9973 12.2085 19.9188 12.0849 19.6965C12.0606 19.6533 12.0442 19.6069 12.0348 19.5614C11.7204 17.9825 10.9367 16.9535 10.028 16.4673C9.59081 16.2332 9.12311 16.1256 8.66713 16.1444C8.2182 16.1633 7.77787 16.3062 7.38838 16.5733C6.64302 17.0847 6.07912 18.0563 5.96337 19.4923C5.94382 19.746 5.72249 19.9353 5.46987 19.9157C5.39791 19.9102 5.33065 19.8882 5.27199 19.8528C3.66476 19.0304 1.79156 17.5787 1.05254 15.1273C0.523841 13.3741 0.583266 11.1229 1.7541 8.24632C1.84951 8.01067 2.11622 7.89834 2.35085 7.99339C2.44158 8.03031 2.51432 8.09315 2.56437 8.17013C3.10168 9.00669 3.66402 9.52589 4.24512 9.82517C4.65573 10.0365 5.08198 10.1409 5.51997 10.1747C5.28925 8.41365 5.04444 2.97181 10.2494 0.284498C10.4746 0.168246 10.7507 0.257005 10.8672 0.483227C10.9001 0.547637 10.9173 0.61676 10.9181 0.685098L10.918 0.686787Z" fill="#94FF0B"/>
</svg>
